<svg width="22" height="22" viewBox="0 0 22 22" fill="none" xmlns="http://www.w3.org/2000/svg">
<path d="M21.607 6.87151C21.5558 5.73567 21.3723 4.95851 21.1119 4.27957C20.8388 3.57928 20.4761 2.98146 19.8829 2.39219C19.2897 1.80292 18.6965 1.43142 17.9967 1.16241C17.3181 0.897663 16.5414 0.71832 15.4063 0.667079C14.2668 0.615838 13.9041 0.603027 11.0107 0.603027C8.11308 0.603027 7.75034 0.615838 6.61518 0.667079C5.48002 0.71832 4.70333 0.901933 4.02479 1.16241C3.32065 1.43569 2.7232 1.79865 2.13428 2.39219C1.54536 2.98573 1.17409 3.57928 0.905237 4.27957C0.644918 4.95851 0.461414 5.73567 0.410204 6.87151C0.358994 8.01162 0.346191 8.37458 0.346191 11.2697C0.346191 14.1691 0.358994 14.532 0.410204 15.6679C0.461414 16.8037 0.644918 17.5809 0.905237 18.2598C1.17836 18.9601 1.5411 19.5579 2.13428 20.1472C2.7232 20.7407 3.32065 21.108 4.02053 21.377C4.69906 21.6417 5.47575 21.8211 6.61091 21.8723C7.75034 21.9236 8.11308 21.9364 11.0065 21.9364C13.9041 21.9364 14.2668 21.9236 15.402 21.8723C16.5372 21.8211 17.3139 21.6375 17.9924 21.377C18.6923 21.1037 19.2897 20.7407 19.8786 20.1472C20.4676 19.5537 20.8388 18.9601 21.1077 18.2598C21.3723 17.5809 21.5515 16.8037 21.6027 15.6679C21.6539 14.5278 21.6667 14.1648 21.6667 11.2697C21.6667 8.37458 21.6582 8.00735 21.607 6.87151ZM19.6909 15.5825C19.6439 16.6244 19.469 17.1923 19.3239 17.5638C19.1318 18.0591 18.8971 18.4178 18.5216 18.7936C18.146 19.1693 17.7918 19.3957 17.2925 19.5964C16.917 19.7415 16.3494 19.9166 15.3124 19.9636C14.19 20.0148 13.8529 20.0276 11.0022 20.0276C8.15149 20.0276 7.81435 20.0148 6.69199 19.9636C5.65072 19.9166 5.08314 19.7415 4.71186 19.5964C4.21683 19.4042 3.85836 19.1693 3.48282 18.7936C3.10728 18.4178 2.8811 18.0634 2.68053 17.5638C2.53543 17.188 2.36046 16.6201 2.31352 15.5825C2.26231 14.4594 2.24951 14.1221 2.24951 11.2697C2.24951 8.41728 2.26231 8.07994 2.31352 6.95691C2.36046 5.91501 2.53543 5.34709 2.68053 4.97559C2.87256 4.48026 3.10728 4.12158 3.48282 3.74581C3.85836 3.37004 4.21256 3.14373 4.71186 2.94303C5.08741 2.79785 5.65499 2.62278 6.69199 2.57581C7.81435 2.52456 8.15149 2.51175 11.0022 2.51175C13.8529 2.51175 14.19 2.52456 15.3124 2.57581C16.3537 2.62278 16.9212 2.79785 17.2925 2.94303C17.7875 3.13519 18.146 3.37004 18.5216 3.74581C18.8971 4.12158 19.1233 4.47599 19.3239 4.97559C19.469 5.35136 19.6439 5.91928 19.6909 6.95691C19.7421 8.07994 19.7549 8.41728 19.7549 11.2697C19.7549 14.1221 19.7378 14.4594 19.6909 15.5825Z" fill="#F9F3EC"/>
<path d="M11.0024 5.78662C7.97251 5.78662 5.52295 8.24192 5.52295 11.2694C5.52295 14.3012 7.97677 16.7522 11.0024 16.7522C14.0281 16.7522 16.4819 14.2926 16.4819 11.2694C16.4819 8.23765 14.0324 5.78662 11.0024 5.78662ZM11.0024 14.8264C9.03939 14.8264 7.4476 13.2336 7.4476 11.2694C7.4476 9.30517 9.03939 7.71243 11.0024 7.71243C12.9655 7.71243 14.5573 9.30517 14.5573 11.2694C14.5573 13.2336 12.9655 14.8264 11.0024 14.8264Z" fill="#F9F3EC"/>
<path d="M16.6953 6.85453C17.4024 6.85453 17.9756 6.281 17.9756 5.57351C17.9756 4.86601 17.4024 4.29248 16.6953 4.29248C15.9882 4.29248 15.415 4.86601 15.415 5.57351C15.415 6.281 15.9882 6.85453 16.6953 6.85453Z" fill="#F9F3EC"/>
<path d="M0.333252 11.2697C0.333252 14.1691 0.346055 14.532 0.397265 15.6679C0.448475 16.8037 0.631978 17.5809 0.892297 18.2598C1.16542 18.9601 1.52816 19.5579 2.12134 20.1472C2.71026 20.7365 3.30771 21.108 4.00759 21.377C4.68612 21.6417 5.46281 21.8211 6.59797 21.8723C7.7374 21.9236 8.10014 21.9364 10.9935 21.9364C13.8912 21.9364 14.2539 21.9236 15.3891 21.8723C16.5242 21.8211 17.3009 21.6375 17.9794 21.377C18.6793 21.1037 19.2768 20.7407 19.8657 20.1472C20.4546 19.5579 20.8259 18.9601 21.0947 18.2598C21.3593 17.5809 21.5386 16.8037 21.5898 15.6679C21.641 14.5278 21.6538 14.1648 21.6538 11.2697C21.6538 8.37031 21.641 8.00735 21.5898 6.87151C21.5386 5.73567 21.3551 4.95851 21.0947 4.27957C20.8216 3.57928 20.4589 2.98146 19.8657 2.39219C19.281 1.79865 18.6836 1.43142 17.9837 1.16241C17.3052 0.897663 16.5285 0.71832 15.3933 0.667079C14.2539 0.615838 13.8912 0.603027 10.9978 0.603027C8.10014 0.603027 7.7374 0.615838 6.60224 0.667079C5.46708 0.71832 4.69039 0.901933 4.01185 1.16241C3.31198 1.43569 2.71453 1.79865 2.12561 2.39219C1.53669 2.98573 1.16542 3.57928 0.896565 4.27957C0.631978 4.95851 0.448475 5.73567 0.397265 6.87151C0.346055 8.00735 0.333252 8.37031 0.333252 11.2697ZM2.2579 11.2697C2.2579 8.42155 2.27071 8.07994 2.32192 6.95691C2.36886 5.91501 2.54383 5.34709 2.68892 4.97559C2.88096 4.48026 3.11568 4.12158 3.49122 3.74581C3.86676 3.37004 4.22096 3.14373 4.72026 2.94303C5.0958 2.79785 5.66338 2.62278 6.70039 2.57581C7.82275 2.52456 8.15988 2.51175 11.0106 2.51175C13.8613 2.51175 14.1984 2.52456 15.3208 2.57581C16.3621 2.62278 16.9296 2.79785 17.3009 2.94303C17.7959 3.13519 18.1544 3.37004 18.53 3.74581C18.9055 4.12158 19.1317 4.47599 19.3323 4.97559C19.4773 5.35136 19.6523 5.91928 19.6993 6.95691C19.7505 8.07994 19.7633 8.41728 19.7633 11.2697C19.7633 14.1221 19.7505 14.4594 19.6993 15.5825C19.6523 16.6244 19.4773 17.1923 19.3323 17.5638C19.1402 18.0591 18.9055 18.4178 18.53 18.7936C18.1544 19.1693 17.8002 19.3957 17.3009 19.5964C16.9254 19.7415 16.3578 19.9166 15.3208 19.9636C14.1984 20.0148 13.8613 20.0276 11.0106 20.0276C8.15988 20.0276 7.82275 20.0148 6.70039 19.9636C5.65912 19.9166 5.09154 19.7415 4.72026 19.5964C4.22523 19.4042 3.86676 19.1693 3.49122 18.7936C3.11568 18.4178 2.8895 18.0634 2.68892 17.5638C2.54383 17.188 2.36886 16.6201 2.32192 15.5825C2.26644 14.4594 2.2579 14.1178 2.2579 11.2697Z" fill="#F9F3EC"/>
</svg>
