<svg width="21" height="22" viewBox="0 0 21 22" fill="none" xmlns="http://www.w3.org/2000/svg">
<rect x="0.5" y="1" width="20" height="20" rx="10" stroke="#BDBDBD" stroke-linecap="round" stroke-dasharray="8 8"/>
<path d="M10.5382 15.64C7.86423 15.64 6.84223 14.422 6.84223 12.63V12.406H8.32623V12.616C8.32623 13.792 8.71823 14.254 10.5662 14.254C12.0502 14.254 12.6382 13.89 12.6382 12.798C12.6382 11.622 12.1202 11.272 10.8182 11.272H8.94223V10.012H10.6082C11.8402 10.012 12.3162 9.704 12.3162 8.724C12.3162 7.744 11.7562 7.366 10.4402 7.366C8.81623 7.366 8.32623 7.828 8.32623 9.004V9.116H6.84223V8.99C6.84223 7.198 8.10223 5.98 10.4542 5.98C12.5682 5.98 13.8282 6.848 13.8282 8.486C13.8282 9.564 13.2822 10.362 12.0922 10.53V10.586C13.3802 10.768 14.1642 11.608 14.1642 12.952C14.1642 14.758 12.7082 15.64 10.5382 15.64Z" fill="#BDBDBD"/>
</svg>
