<svg width="21" height="22" viewBox="0 0 21 22" fill="none" xmlns="http://www.w3.org/2000/svg">
<rect x="0.5" y="1" width="20" height="20" rx="10" stroke="#BDBDBD" stroke-linecap="round" stroke-dasharray="8 8"/>
<path d="M10.5018 15.64C8.0658 15.64 6.8058 14.562 6.8058 12.84V12.756H8.3038V12.84C8.3038 13.89 9.0038 14.254 10.5578 14.254C12.2098 14.254 12.7558 13.792 12.7558 12.476C12.7558 11.216 12.1538 10.726 10.5718 10.726C9.4238 10.726 8.7518 11.048 8.2898 11.314L6.9598 11.104L7.2818 6.12H13.7498V7.478H8.6118L8.3878 10.208H8.4298C8.9198 9.802 9.8018 9.424 11.0338 9.424C13.0358 9.424 14.2538 10.544 14.2538 12.434C14.2538 14.38 13.0918 15.64 10.5018 15.64Z" fill="#BDBDBD"/>
</svg>
