<svg width="21" height="22" viewBox="0 0 21 22" fill="none" xmlns="http://www.w3.org/2000/svg">
<rect x="0.5" y="1" width="20" height="20" rx="10" stroke="#BDBDBD" stroke-linecap="round" stroke-dasharray="8 8"/>
<path d="M13.9832 15.5H7.06721V14.562C7.06721 12.784 8.27121 11.972 9.58721 11.3L11.0292 10.558C12.0372 10.026 12.4432 9.606 12.4432 8.808C12.4432 7.94 12.1212 7.366 10.5672 7.366C8.85921 7.366 8.50921 7.926 8.50921 9.214V9.41H6.99721V9.186C6.99721 7.436 8.08921 5.98 10.6792 5.98C12.9892 5.98 13.9552 7.198 13.9552 8.752C13.9552 10.292 12.9052 11.118 11.7012 11.734L10.3292 12.434C9.37721 12.924 8.64921 13.372 8.64921 14.142H13.9832V15.5Z" fill="#BDBDBD"/>
</svg>
