<svg width="90" height="91" viewBox="0 0 90 91" fill="none" xmlns="http://www.w3.org/2000/svg">
<path d="M45 0.269531L47.2435 28.2281L56.6469 1.80287L51.5777 29.3895L67.5 6.29839L55.4637 31.633L76.8198 13.4497L58.6365 34.8059L83.9711 22.7695L60.8801 38.6918L88.4667 33.6227L62.0414 43.026L90 45.2695L62.0414 47.5131L88.4667 56.9164L60.8801 51.8473L83.9711 67.7695L58.6365 55.7332L76.8198 77.0893L55.4637 58.9061L67.5 84.2407L51.5777 61.1496L56.6469 88.7362L47.2435 62.311L45 90.2695L42.7565 62.311L33.3531 88.7362L38.4223 61.1496L22.5 84.2407L34.5363 58.9061L13.1802 77.0893L31.3635 55.7332L6.02886 67.7695L29.1199 51.8473L1.53334 56.9164L27.9586 47.5131L0 45.2695L27.9586 43.026L1.53334 33.6227L29.1199 38.6918L6.02886 22.7695L31.3635 34.8059L13.1802 13.4497L34.5363 31.633L22.5 6.29839L38.4223 29.3895L33.3531 1.80287L42.7565 28.2281L45 0.269531Z" fill="#825E68"/>
</svg>
