<svg width="22" height="18" viewBox="0 0 22 18" fill="none" xmlns="http://www.w3.org/2000/svg">
<path d="M19.0507 4.98589C19.059 5.17362 19.059 5.35282 19.059 5.54056C19.0672 11.2323 14.8854 17.803 7.2381 17.803C4.98259 17.803 2.76824 17.1289 0.866699 15.8659C1.19597 15.9086 1.52524 15.9257 1.85451 15.9257C3.72313 15.9257 5.54236 15.2771 7.01585 14.0739C5.23778 14.0398 3.67374 12.8366 3.13044 11.0787C3.75606 11.2067 4.39814 11.1811 5.00729 11.0019C3.07282 10.6094 1.68165 8.84297 1.67341 6.78643C1.67341 6.76936 1.67341 6.75229 1.67341 6.73523C2.24964 7.06803 2.89995 7.25576 3.55849 7.27283C1.73927 6.00989 1.17128 3.49255 2.27434 1.52134C4.38991 4.21788 7.50152 5.84776 10.8436 6.02696C10.5061 4.53362 10.9671 2.96348 12.0455 1.90534C13.7165 0.275472 16.3507 0.360806 17.9312 2.09308C18.8614 1.90534 19.7587 1.54694 20.5736 1.04347C20.2608 2.04188 19.6105 2.88668 18.7461 3.42428C19.5693 3.32188 20.376 3.09148 21.1334 2.75015C20.5736 3.62055 19.8657 4.37148 19.0507 4.98589Z" fill="#F9F3EC"/>
</svg>
